# xmcd
#
# Track frame offsets: 
#        150
#        8758
#        29162
#        42356
#        62367
#        71356
#        79385
#        91733
#        107081
#        123738
#        134472
#        142189
#        150959
#        165339
#        171834
#        192053
#        208191
#        222831
#        235546
#        249563
#
# Disc length: 3443 seconds
#
# Revision: 0
# Processed by: cddbd v1.5.2PL0 Copyright (c) Steve Scherf et al.
# Submitted via: ExactAudioCopy v1.3
#
DISCID=110d7114
DTITLE=Various Artist - From Cradles to Caskets
DYEAR=1900
DGENRE=Country
TTITLE0=Rock the Cradle, Joe - Don Pedi
TTITLE1=A Quarrel with the Landlady - Steve and Ruth Smith
TTITLE2=Wagoner's Lad - Sheila Kay Adams
TTITLE3=Going Across the Mountain - Jim Taylor
TTITLE4=Lime Rock - Doug Phillips
TTITLE5=Shortnin' Bread - Roger Howell
TTITLE6=Old Steam Train - The Calahans 
TTITLE7=Harvest Home - Jo Northup
TTITLE8=Over the Moor to Maggie - Andrew Magill
TTITLE9=Cluck Old Hen - Laura Boosinger and Josh Goforth 
TTITLE10=Grandfather's Clock - Mark Pruett Band
TTITLE11=Shady Grove - Bill Morris 
TTITLE12=Old Zeke Perkins - Randy and Deborah Jean Sheets
TTITLE13=I Love My Wife As Well As Anybody, But When My Back Is Turned
TTITLE13=, She's Huggin' Everybody - Don Pedi 
TTITLE14=Still No Place Like Home -Amantha Mill 
TTITLE15=Love So True - Wild Blue Yonder 
TTITLE16=Willie's Old Trews -Sleep Sound In Da Mornin' - The Forget-Me
TTITLE16=Nots
TTITLE17=Mole In The Ground - The Lone Tones 
TTITLE18=Uncloudy Day - The Christian Quartet 
TTITLE19=Little Rosewood Casket - Naomi and The Home Folks (recorded a
TTITLE19=t the original Mast Store) 
EXTD=
EXTT0=
EXTT1=
EXTT2=
EXTT3=
EXTT4=
EXTT5=
EXTT6=
EXTT7=
EXTT8=
EXTT9=
EXTT10=
EXTT11=
EXTT12=
EXTT13=
EXTT14=
EXTT15=
EXTT16=
EXTT17=
EXTT18=
EXTT19=
PLAYORDER=
